<?xml version="1.0" standalone="no"?>
<!DOCTYPE svg PUBLIC "-//W3C//DTD SVG 20010904//EN"
 "http://www.w3.org/TR/2001/REC-SVG-20010904/DTD/svg10.dtd">
<svg version="1.0" xmlns="http://www.w3.org/2000/svg"
 width="1360.000000pt" height="1360.000000pt" viewBox="0 0 1360.000000 1360.000000"
 preserveAspectRatio="xMidYMid meet">
<metadata>
Created by potrace 1.11, written by Peter Selinger 2001-2013
</metadata>
<g transform="translate(0.000000,1360.000000) scale(0.100000,-0.100000)"
fill="#000000" stroke="none">
<path d="M6739 9986 c-2 -3 -108 -7 -234 -11 -127 -4 -250 -8 -275 -10 -25 -2
-85 -6 -135 -9 -49 -4 -112 -9 -140 -11 -27 -3 -79 -8 -115 -11 -36 -4 -81 -8
-100 -9 -19 -2 -35 -4 -35 -5 0 -1 -20 -3 -45 -5 -25 -2 -58 -6 -75 -9 -31 -6
-141 -18 -162 -19 -7 0 -13 -3 -13 -6 0 -3 -17 -6 -38 -7 -20 0 -53 -4 -72 -7
-19 -4 -57 -10 -85 -13 -27 -3 -53 -8 -56 -10 -4 -2 -24 -6 -45 -10 -22 -3
-48 -7 -59 -9 -160 -30 -175 -33 -205 -40 -57 -12 -86 -18 -105 -20 -11 -1
-36 -7 -55 -13 -19 -6 -48 -14 -65 -17 -16 -2 -39 -7 -50 -10 -54 -13 -101
-24 -105 -26 -12 -4 -34 -10 -245 -65 -11 -3 -27 -7 -35 -8 -8 -1 -22 -5 -30
-8 -12 -5 -154 -48 -205 -62 -5 -2 -17 -6 -25 -9 -8 -3 -40 -13 -70 -22 -55
-17 -272 -91 -300 -102 -8 -4 -17 -7 -20 -7 -10 -3 -206 -78 -235 -91 -16 -8
-68 -29 -115 -48 -255 -104 -758 -351 -870 -427 -8 -6 -27 -15 -42 -21 -16 -6
-28 -15 -28 -20 0 -5 -4 -9 -9 -9 -12 0 -114 -62 -123 -75 -4 -5 -8 -7 -8 -3
0 7 -118 -67 -147 -92 -7 -5 -17 -10 -22 -10 -5 0 -16 -6 -23 -13 -7 -7 -51
-38 -98 -70 -133 -89 -329 -236 -475 -357 -167 -139 -248 -213 -425 -390 -80
-80 -170 -174 -200 -209 -30 -35 -68 -79 -85 -97 -16 -18 -41 -47 -55 -65 -14
-18 -30 -37 -35 -43 -25 -26 -147 -189 -207 -276 -60 -87 -208 -317 -208 -324
0 -1 -28 -52 -62 -112 -54 -95 -62 -116 -62 -162 -1 -46 3 -56 30 -81 31 -29
72 -35 106 -15 9 5 79 70 156 144 77 74 155 148 173 164 205 176 278 234 464
371 55 41 118 88 141 104 23 17 46 31 52 31 6 0 12 4 14 9 2 5 53 41 113 80
61 38 115 74 120 78 31 25 397 236 495 285 36 18 67 35 70 39 6 6 399 199 406
199 3 0 38 15 77 34 70 32 297 130 307 132 3 0 19 6 35 13 197 84 864 312 948
325 7 1 17 4 22 7 6 4 24 10 40 14 51 12 116 29 155 40 76 21 351 88 371 90
14 1 41 7 60 13 19 6 70 18 114 27 44 9 89 18 100 21 10 2 37 6 59 10 22 3 43
7 46 9 3 2 25 6 50 10 25 4 47 8 50 10 3 2 28 6 55 10 59 8 80 11 120 19 17 3
50 8 75 11 25 3 56 8 70 11 14 3 41 8 60 10 19 3 46 7 59 9 14 2 51 7 84 10
32 4 68 8 80 11 12 2 45 6 72 9 28 3 66 7 85 10 19 3 64 7 100 11 36 3 85 7
110 10 64 6 133 12 230 18 47 3 121 8 165 12 364 25 1103 20 1485 -10 36 -3
101 -8 145 -11 44 -3 98 -7 120 -10 22 -2 67 -6 100 -10 68 -6 133 -14 185
-21 19 -3 58 -8 85 -10 28 -3 59 -6 70 -8 11 -1 47 -6 80 -11 33 -4 69 -9 80
-11 11 -3 36 -7 55 -10 236 -37 241 -38 410 -70 152 -29 163 -32 170 -34 3 -1
9 -2 13 -1 4 1 35 -6 68 -14 33 -9 81 -20 107 -26 26 -5 58 -12 72 -15 14 -2
39 -9 55 -14 17 -5 41 -11 55 -14 23 -4 179 -44 315 -80 33 -9 71 -21 85 -26
14 -5 36 -11 50 -14 14 -2 47 -12 74 -21 26 -9 56 -18 65 -20 9 -2 27 -8 41
-13 14 -5 27 -10 30 -10 3 0 12 -3 20 -6 8 -3 76 -25 150 -49 236 -78 582
-209 608 -229 6 -6 12 -8 12 -5 0 6 113 -42 258 -109 41 -19 76 -34 78 -34 21
0 506 -250 670 -345 55 -32 113 -65 129 -75 29 -16 158 -97 271 -170 117 -75
306 -207 335 -235 9 -8 21 -15 27 -15 5 0 12 -4 14 -8 2 -5 35 -32 73 -62 97
-74 169 -134 173 -142 2 -5 8 -8 12 -8 5 0 20 -10 32 -22 13 -13 41 -38 63
-56 63 -52 200 -179 297 -274 49 -49 100 -91 113 -94 15 -4 40 2 62 13 l38 18
3 73 c3 69 1 77 -39 150 -23 42 -66 117 -95 166 -30 49 -54 91 -54 93 0 2 -5
9 -10 16 -6 7 -30 42 -54 79 -51 77 -138 201 -146 208 -3 3 -17 21 -30 40 -14
19 -32 44 -41 55 -337 409 -570 641 -921 921 -170 136 -155 124 -198 154 -19
13 -37 27 -40 30 -3 4 -57 42 -120 85 -63 44 -116 83 -118 87 -2 4 -8 8 -14 8
-5 0 -28 13 -51 28 -71 48 -235 152 -241 152 -2 0 -33 17 -67 38 -130 79 -369
207 -381 204 -3 -1 -12 5 -18 13 -7 8 -16 15 -21 15 -4 0 -63 27 -131 60 -67
33 -128 60 -134 60 -7 0 -14 3 -16 8 -4 8 -94 47 -338 144 -96 38 -183 74
-192 79 -10 5 -26 9 -36 9 -10 0 -22 4 -27 9 -6 5 -66 28 -135 51 -121 40
-133 44 -155 50 -5 2 -35 12 -65 22 -30 11 -59 21 -65 22 -5 2 -37 11 -70 21
-33 10 -64 20 -70 21 -13 3 -103 28 -175 49 -30 9 -64 18 -75 20 -11 2 -40 9
-65 15 -25 7 -52 13 -60 15 -8 2 -43 10 -77 19 -57 15 -219 50 -287 62 -16 3
-32 7 -36 9 -4 2 -25 7 -46 10 -21 2 -50 7 -64 10 -22 4 -44 8 -115 21 -24 5
-187 31 -235 39 -19 3 -57 8 -85 11 -27 3 -61 7 -75 10 -14 3 -47 7 -75 9 -27
3 -66 8 -85 11 -34 6 -53 8 -170 18 -30 3 -75 7 -100 10 -40 5 -119 10 -305
22 -33 2 -157 6 -275 10 -118 3 -218 8 -222 10 -4 2 -9 0 -13 -6 -4 -6 -13 -7
-23 -2 -19 9 -59 8 -69 -2 -3 -3 -11 -1 -18 4 -7 5 -14 8 -16 6z"/>
<path d="M6736 5962 c-2 -2 -26 -5 -53 -7 -75 -6 -123 -14 -183 -31 -30 -9
-59 -17 -65 -18 -21 -4 -111 -40 -131 -53 -11 -7 -24 -10 -27 -6 -4 3 -7 1 -7
-5 0 -7 -6 -12 -13 -12 -8 0 -61 -31 -118 -69 -177 -117 -318 -270 -412 -449
-40 -76 -87 -187 -93 -217 -1 -5 -7 -30 -14 -55 -28 -104 -34 -155 -34 -305
-1 -159 4 -201 39 -328 41 -155 144 -356 234 -457 141 -158 246 -241 409 -323
50 -25 92 -45 92 -42 0 2 27 -7 59 -20 50 -19 92 -30 156 -41 6 -1 12 -3 15
-4 15 -5 51 -10 105 -14 33 -3 62 -6 65 -6 8 -2 122 1 165 5 39 3 84 10 135
20 14 3 34 7 45 9 11 2 52 14 90 27 39 13 73 22 78 21 4 -1 7 2 7 8 0 5 6 10
13 10 6 0 43 16 80 35 114 58 212 130 308 225 57 56 169 196 169 210 0 5 6 15
13 22 29 30 113 218 133 298 2 8 10 42 18 75 16 67 30 184 30 260 0 65 -12
207 -18 226 -3 8 -8 28 -11 44 -9 46 -10 49 -18 63 -5 6 -6 12 -3 12 18 0
-114 299 -136 308 -4 2 -8 8 -8 14 0 15 -87 126 -154 196 -193 202 -481 343
-750 368 -76 7 -206 11 -210 6z"/>
</g>
</svg>
