<svg xmlns="http://www.w3.org/2000/svg" viewBox="0 0 30 30"><path d="M16.8 12.8v-1.5c0-.2-.1-.3-.3-.3h-3.7c-.2 0-.3.1-.3.3v13.6c0 .2.1.3.3.3h3.9c.2 0 .3-.1.3-.3v-6.4c0-.5 0-1.1.1-1.6.1-.6.3-1.1.7-1.6.5-.6 1.2-.7 1.9-.7 1 0 1.6.5 1.9 1.5.2.6.2 1.3.2 1.9v6.9c0 .3 0 .3.3.3h3.8c.4 0 .4 0 .4-.4v-8.3c0-.8-.1-1.7-.4-2.5-.4-1.3-1-2.3-2.3-2.8-1.3-.6-2.6-.7-4-.3-1.2.2-2.2.9-2.8 1.9zm-7 5.3v-6.8c0-.2-.1-.3-.3-.3H5.7c-.2 0-.3.1-.3.3v13.5c0 .2.1.3.3.3h3.8c.2 0 .3-.1.3-.3v-6.7zM5 6.6C5 8 6.2 9.2 7.6 9.2c1.5 0 2.6-1.1 2.6-2.6S9 4 7.6 4C6 4 5 5.3 5 6.6z" fill="#fff"/><path fill="none" stroke="#fff" d="M.5.5h29v29H.5z"/></svg>