<svg xmlns="http://www.w3.org/2000/svg" viewBox="0 0 30 30" fill="#fff"><path d="M4 6.6C4 8 5.2 9.2 6.6 9.2c1.5 0 2.6-1.1 2.6-2.6S8 4 6.6 4C5 4 4 5.3 4 6.6zm4.8 11.5v-6.8c0-.2-.1-.3-.3-.3H4.7c-.2 0-.3.1-.3.3v13.5c0 .2.1.3.3.3h3.8c.2 0 .3-.1.3-.3v-6.7zm7-5.3v-1.5c0-.2-.1-.3-.3-.3h-3.7c-.2 0-.3.1-.3.3v13.6c0 .2.1.3.3.3h3.9c.2 0 .3-.1.3-.3v-6.4c0-.5 0-1.1.1-1.6.1-.6.3-1.1.7-1.6.5-.6 1.2-.7 1.9-.7 1 0 1.6.5 1.9 1.5.2.6.2 1.3.2 1.9v6.9c0 .3 0 .3.3.3h3.8c.4 0 .4 0 .4-.4v-8.3c0-.8-.1-1.7-.4-2.5-.4-1.3-1-2.3-2.3-2.8-1.3-.6-2.6-.7-4-.3-1.2.2-2.2.9-2.8 1.9z"/><path d="M28 1c.55 0 1 .45 1 1v26c0 .55-.45 1-1 1H2c-.55 0-1-.45-1-1V2c0-.55.45-1 1-1h26m0-1H2C.9 0 0 .9 0 2v26c0 1.1.9 2 2 2h26c1.1 0 2-.9 2-2V2c0-1.1-.9-2-2-2z"/></svg>