<svg width="34" height="31" viewBox="0 0 34 31" xmlns="http://www.w3.org/2000/svg" xmlns:xlink="http://www.w3.org/1999/xlink"><defs><path id="a" d="M.075.5h6.383v6.383H.075V.5z"/></defs><g fill="none" fill-rule="evenodd"><path d="M31.688 27.063c0 .788.77 1.575 1.542 1.575h.463l.307.314v1.733l-.307.315h-9.1l-.307-.315v-1.733l.308-.314h.464c.77 0 1.54-.787 1.54-1.575v-7.795c0-3.228-1.85-5.157-4.085-5.157-2.043 0-2.97 1.377-2.97 3.818v9.134c0 .788.772 1.575 1.543 1.575h.463l.309.314v1.733l-.31.315h-9.097l-.309-.315v-1.733l.31-.314h.462c.771 0 1.542-.787 1.542-1.575v-7.795c0-3.228-1.812-5.157-4.049-5.157-2.003 0-3.006 1.377-3.006 3.818v9.134c0 .788.772 1.575 1.541 1.575h.464l.308.314v1.733L9.406 31H.307L0 30.685v-1.733l.307-.314H.77c.771 0 1.542-.787 1.542-1.575v-9.882C2.312 13.284 4.78 11 8.442 11c2.853 0 4.895 1.182 6.283 3.308.888-2.363 3.278-3.308 5.86-3.308 2.506 0 5.128 1.379 6.4 3.504l-.386-2.56.386-.393h1.156l5.552 2.324.307.393v.905l-.385.395h-.385c-.771 0-1.542.787-1.542 1.574v9.921z" fill="#1D1D1B"/><g transform="translate(27)"><mask id="b" fill="#fff"><use xlink:href="#a"/></mask><path d="M6.458 3.73a3.167 3.167 0 01-3.153 3.153c-1.768 0-3.23-1.422-3.23-3.153A3.25 3.25 0 013.305.5c1.73 0 3.153 1.46 3.153 3.23" fill="#1D1D1B" mask="url(#b)"/></g></g></svg>