<svg version="1.1" id="Ebene_1" xmlns="http://www.w3.org/2000/svg" x="0" y="0" viewBox="0 0 34 31" xml:space="preserve" enable-background="new 0 0 34 31"><style>.st0{fill:#fff}</style><g id="Symbols"><g id="header-weiss-haupt" transform="translate(-87 -7)"><g id="Page-1" transform="translate(87 7)"><path id="Fill-1" class="st0" d="M31.7 27.1c0 .8.8 1.6 1.5 1.6h.5l.3.3v1.7l-.3.3h-9.1l-.3-.3V29l.3-.3h.5c.8 0 1.5-.8 1.5-1.6v-7.8c0-3.2-1.8-5.2-4.1-5.2-2 0-3 1.4-3 3.8V27c0 .8.8 1.6 1.5 1.6h.5l.3.3v1.7l-.3.4h-9.1l-.3-.3V29l.3-.3h.5c.8 0 1.5-.8 1.5-1.6v-7.8c0-3.2-1.8-5.2-4-5.2-2 0-3 1.4-3 3.8V27c0 .8.8 1.6 1.5 1.6h.5l.3.4v1.7l-.3.3H.3l-.3-.3V29l.3-.3h.5c.8 0 1.5-.8 1.5-1.6v-9.9c0-3.9 2.5-6.2 6.1-6.2 2.9 0 4.9 1.2 6.3 3.3.9-2.4 3.3-3.3 5.9-3.3 2.5 0 5.1 1.4 6.4 3.5l-.4-2.6.4-.4h1.2l5.6 2.3.3.4v.9l-.4.4h-.4c-.8 0-1.5.8-1.5 1.6v10z"/><g id="Group-5" transform="translate(27)"><defs><filter id="Adobe_OpacityMaskFilter" filterUnits="userSpaceOnUse" x=".1" y=".5" width="6.4" height="6.4"><feColorMatrix values="1 0 0 0 0 0 1 0 0 0 0 0 1 0 0 0 0 0 1 0"/></filter></defs><mask maskUnits="userSpaceOnUse" x=".1" y=".5" width="6.4" height="6.4" id="mask-2"><g filter="url(#Adobe_OpacityMaskFilter)"><path id="path-1" class="st0" d="M.1.5h6.4v6.4H.1z"/></g></mask><path id="Fill-3" d="M6.5 3.7c0 1.7-1.4 3.2-3.2 3.2C1.5 6.9.1 5.5.1 3.7.1 1.9 1.6.5 3.3.5 5 .5 6.5 2 6.5 3.7" mask="url(#mask-2)" fill="#fff"/></g></g></g></g></svg>