<svg width="108" height="21" viewBox="0 0 108 21" xmlns="http://www.w3.org/2000/svg" xmlns:xlink="http://www.w3.org/1999/xlink"><defs><path id="a" d="M21.602 13.877V.085H.37v13.792h21.232z"/><path id="c" d="M.6 0h4.398v4.23H.6V0z"/><path id="e" d="M.202 0h4.303v4.364H.202V0z"/></defs><g fill="none" fill-rule="evenodd"><path d="M7.189 20.045c4.211 0 6.974-2.16 6.974-5.412 0-7.52-10.3-4.906-10.3-8.666 0-1.44 1.234-2.293 3.272-2.293 2.146 0 3.622 1.2 3.997 3.093l2.817-1.146c-.537-2.8-3.3-4.666-6.814-4.666C3.46.955.697 3.008.697 5.967c0 6.72 10.274 4.293 10.274 8.72 0 1.599-1.448 2.639-3.675 2.639-2.253 0-4.104-1.573-4.426-3.973l-2.87.88c.536 3.413 3.54 5.812 7.189 5.812zm17.221-.32l-.188-2.586c-.51.24-1.126.32-1.636.32-1.1 0-1.85-.693-1.85-2.026v-6.56h3.486v-2.48h-3.487V2.395h-2.924v4h-2.36v2.48h2.36v6.719c0 3.066 1.905 4.452 4.453 4.452.751 0 1.502-.106 2.146-.32zM39.003 6.394h-2.924v5.892c0 3.227-1.368 5.146-3.622 5.146-1.716 0-2.79-1.173-2.79-2.853V6.394h-2.923v8.852c0 2.906 2.012 4.8 4.909 4.8 1.958 0 3.54-1.014 4.426-2.454v2.24h2.924V6.394zm9.2 13.651c1.797 0 3.434-.8 4.078-1.92v1.707h2.923V.955h-2.923v7.119c-.805-1.12-2.388-1.893-4.131-1.893-4.078 0-6.411 2.88-6.411 6.932 0 4.053 2.333 6.932 6.464 6.932zm.376-2.533c-2.36 0-3.917-1.76-3.917-4.399 0-2.666 1.556-4.4 3.917-4.4 2.36 0 3.916 1.734 3.916 4.4 0 2.64-1.556 4.4-3.916 4.4zm10.085 2.32h2.924V6.394h-2.924v13.438zm12.634.213c4.05 0 6.975-2.906 6.975-6.932s-2.924-6.932-6.975-6.932c-4.077 0-6.974 2.906-6.974 6.932s2.897 6.932 6.974 6.932zm0-2.533c-2.414 0-4.023-1.813-4.023-4.399 0-2.586 1.61-4.4 4.023-4.4 2.388 0 4.024 1.814 4.024 4.4 0 2.586-1.636 4.4-4.024 4.4z" fill="#1D1D1B"/><g transform="translate(85.91 6.168)"><mask id="b" fill="#fff"><use xlink:href="#a"/></mask><path d="M21.6 1.467s.003-.344 0-.403c-1.63-.325-3.233-.65-4.89-.98v2.592C14.98-.024 12.796.128 12.796.128h-.004a4.213 4.213 0 00-3.98 2.781l-.156-.213C6.924-.026 4.729.128 4.729.128h-.004C2.423.128.557 1.944.509 4.202H.507C.505 6.564.459 13.04.37 13.877h3.709a.683.683 0 01-.114-.358l.002-8.28c0-1.906.604-2.495 1.283-2.788.208-.09.426-.139.646-.15l.11-.003c1.094 0 2.447 1.177 2.622 1.332-.03.187-.048.378-.052.572h-.002c-.001 2.362-.048 8.837-.137 9.675h3.709a.682.682 0 01-.113-.358l.001-8.28c0-1.906.604-2.495 1.283-2.788.208-.09.426-.139.646-.15l.11-.003c1.14 0 2.559 1.275 2.637 1.346l-.002 9.931a.69.69 0 01-.08.302h3.636a.687.687 0 01-.098-.334c.001-.441.003-2.338.002-2.578-.011-2.405-.008-4.81-.004-7.214 0-.504.057-1 .31-1.453.203-.361.5-.624.895-.754l.231-.077zM8.58 4.203h-.003.002zm-8.068 0H.51h.002z" fill="#1D1D1B" mask="url(#b)"/></g><g transform="translate(102.375)"><mask id="d" fill="#fff"><use xlink:href="#c"/></mask><path d="M2.799 4.23c1.162 0 2.199-.893 2.199-2.115C4.998.864 3.961 0 2.798 0 1.606 0 .6.864.6 2.115.6 3.337 1.605 4.23 2.799 4.23" fill="#1D1D1B" mask="url(#d)"/></g><g transform="translate(58.227)"><mask id="f" fill="#fff"><use xlink:href="#e"/></mask><path d="M2.354 4.364a2.164 2.164 0 002.151-2.182A2.145 2.145 0 002.354 0C1.186 0 .202.89.202 2.182c0 1.26.984 2.182 2.152 2.182" fill="#1D1D1B" mask="url(#f)"/></g></g></svg>