<svg xmlns="http://www.w3.org/2000/svg" viewBox="0 0 18.88 15.07"><path d="M16 2.58a1.11 1.11 0 01-1.19-1.13A1.15 1.15 0 0116 .33a1.12 1.12 0 011.15 1.12A1.09 1.09 0 0116 2.58zM18.62 4.79v-.4H15v1.48a3.93 3.93 0 00-.34-.44 3.47 3.47 0 00-2.71-1.29 3.41 3.41 0 00-3.16 2.12 3.72 3.72 0 00-.51-.74 3.44 3.44 0 00-.45-.47 3.31 3.31 0 00-2.32-.91A3.41 3.41 0 002.1 7.55v6l-1.52.55v.41h5v-.41L4 13.57V7.79v-.33a3 3 0 01.12-.7 1.66 1.66 0 01.31-.59 2.22 2.22 0 011.78-.88 2.25 2.25 0 011.45.54 2.71 2.71 0 01.43.48 2.43 2.43 0 01.42 1.26v6L7 14.1v.41h5v-.41l-1.51-.53V7.79v-.32a2.28 2.28 0 01.11-.7 2.22 2.22 0 01.32-.61 2.28 2.28 0 011.78-.87 2.32 2.32 0 01.65.1A2.51 2.51 0 0115 7v6.62l-1.52.54v.41h5.12v-.41l-1.68-.54v-8.3z"/></svg>