<svg version="1.1" id="Ebene_1" xmlns="http://www.w3.org/2000/svg" x="0" y="0" viewBox="0 0 18.7 14.5" xml:space="preserve"><style>.st0{display:none}</style><g id="neu"><path d="M18.4 4.5V4h-3.5v2c-.7-1.6-2.1-2-2.8-2.1h-.7c-1.6 0-2.6.8-3 2.4-.7-1.7-2-2.2-2.8-2.3-.2 0-.5-.1-.7-.1-2 0-3.2 1.3-3.2 3.7v5.7l-1.7.5v.4h5.1v-.4l-1.5-.5V7.6c0-1.7.7-2.7 2.1-2.7 1.6 0 2.6 1.4 2.6 3.3v5l-1.5.5v.4h5v-.4l-1.7-.5V7.5c0-1.7.7-2.5 2.1-2.5s2.4 1.2 2.6 2.9v5.4l-1.7.5v.4h5.3v-.4l-1.7-.5V5l1.7-.5zM15.8 2.4c.7 0 1.1-.5 1.1-1.1S16.4.2 15.8.2c-.7 0-1.2.5-1.2 1.1s.5 1.1 1.2 1.1z"/></g><path d="M-65.7 14.4s-1.5.1-2.4-.9l-2.1-3.7h-.5v5.1h.5l.7-1c1.1.7 2.5 1.2 4 1.2" fill="#1d1d1b" id="Ebene_4"/></svg>