<svg xmlns="http://www.w3.org/2000/svg" viewBox="0 0 177.25 31.62"><path d="M34.68 28.48c-1.42 0-2.92-1.18-2.92-3.65V10.36h5.1V9.23h-5.11V2.64h-1l-3 6.59h-3.93v1.13h3.94v14.28c0 4.47 3 6.25 5.79 6.25 3.32 0 5.59-2.41 5.32-8.33H38c0 3.28-.67 5.92-3.32 5.92zM90.08 1.7h-7.49v.77l3.51 1.2v11.82a8.87 8.87 0 00-8.86-6.77c-5.7 0-9.9 4.28-9.9 11.09s4.2 11.1 9.9 11.1a8.92 8.92 0 008.86-6.81v6.29h7.5v-.85l-3.52-1.12zm-9.91 26.46c-3.91.69-7.46-2.33-8.36-7.46s1.4-9.17 5.3-9.86c3.74-.66 7.51 2.15 8.42 7.32v.16c.94 5.17-1.62 9.18-5.36 9.84zM102.58 9.24h-7.49v.85l3.47 1.12v17.21l-3.47 1.12v.85h10.96v-.85l-3.47-1.12V9.24zM100.53 5.45A2.33 2.33 0 00103 3.09a2.4 2.4 0 00-2.47-2.35 2.35 2.35 0 00-2.4 2.35 2.28 2.28 0 002.4 2.36zM170.76 5.45a2.33 2.33 0 01-2.48-2.36 2.4 2.4 0 012.48-2.35 2.36 2.36 0 012.4 2.35 2.29 2.29 0 01-2.4 2.36zM119.73 8.72c-6.38 0-11.43 4.58-11.43 11s5 11.14 11.43 11.14 11.48-4.67 11.48-11.14-5.05-11-11.48-11zm1.7 20.49c-3.94.7-7.15-2-8.25-8.3s1-9.85 4.93-10.54 7.13 2 8.23 8.22-.93 9.92-4.91 10.62zM62.13 9.24h-7.49v.85l3.47 1.12v9.89c0 4.28-2.23 7.49-6.13 7.49-3 0-4.71-2-4.71-5.56V9.24h-7.49v.85l3.46 1.12v11.9c0 5.18 2.66 7.8 7 7.8h.27s6 .21 7.59-5.41v4.9h7.53v-.85l-3.51-1.12zM21.19 18.94a7.17 7.17 0 00-2.74-2.78 20 20 0 00-3.52-1.65c-3.31-1.4-6.47-2.28-8.57-3.66a4.17 4.17 0 01-1.62-3.22 4.69 4.69 0 01.77-2.56c1.6-2.44 5-2.55 5.64-2.56a6.25 6.25 0 014.57 1.73l4 7h.93V1.61h-.89l-1.33 1.84a13.78 13.78 0 00-7.62-2.22 11.73 11.73 0 00-6.89 2.05A7.29 7.29 0 001.09 8.7a7 7 0 003.19 6 24.15 24.15 0 002.84 1.49c4 1.77 6.21 2.54 6.21 2.54a11.57 11.57 0 013.6 2.27 5.15 5.15 0 011.28 1.81 4.61 4.61 0 01.33 2.12 4.56 4.56 0 01-.91 2.26c-1.77 2.38-5.23 2.16-5.92 2.14 0 0-3.79-.14-5.88-2.52-1.17-2-2.34-4.08-3.52-6.1h-1v9.67h.89l1.28-1.84a16.32 16.32 0 008.12 2.39 13.86 13.86 0 005.25-.93 9 9 0 003.28-2.23 7.6 7.6 0 002-5.29 7.26 7.26 0 00-.94-3.54zM176.28 10.07v-.84h-7.59v3.1a9 9 0 00-.7-.93 7.24 7.24 0 00-5.68-2.68 7.14 7.14 0 00-6.59 4.42 7.17 7.17 0 00-1.05-1.54c-.44-.5-.58-.65-.94-1a7.16 7.16 0 00-12 5.23v12.59l-3.17 1.12v.86H149v-.86l-3.18-1.12V16.33v-.67a6.72 6.72 0 01.25-1.48 4.25 4.25 0 01.65-1.23 4.61 4.61 0 015.09-1.62 4.92 4.92 0 011.68.91 5.32 5.32 0 01.89 1 4.89 4.89 0 01.87 2.63v12.55l-3.17 1.12v.86h10.37v-.86l-3.17-1.12V16.33v-.67a5.37 5.37 0 01.24-1.46 4.68 4.68 0 01.67-1.27 4.61 4.61 0 015.08-1.6 5.43 5.43 0 012.63 1.87 6.34 6.34 0 01.74 1.39c0 .06 0 .15.06.22v13.62l-3.18 1.11v.86h10.73v-.86l-3.52-1.11V11.18z"/></svg>