<svg xmlns="http://www.w3.org/2000/svg" viewBox="0 0 85.6 14.5"><style>.st1{display:none}</style><g id="neu"><path d="M85.3 4.5V4h-3.5v2c-.7-1.6-2.1-2-2.8-2.1h-.7c-1.6 0-2.6.8-3 2.4-.7-1.7-2-2.2-2.8-2.3-.2 0-.5-.1-.7-.1-2 0-3.2 1.3-3.2 3.7v5.7l-1.7.5v.4H72v-.4l-1.5-.5V7.6c0-1.7.7-2.7 2.1-2.7 1.6 0 2.6 1.4 2.6 3.3v5l-1.5.5v.4h5v-.4l-1.7-.5V7.5c0-1.7.7-2.5 2.1-2.5 1.4 0 2.4 1.2 2.6 2.9v5.4l-1.7.5v.4h5.3v-.4l-1.7-.5V5l1.7-.5zM82.7 2.4c.7 0 1.1-.5 1.1-1.1 0-.6-.5-1.1-1.1-1.1-.7 0-1.2.5-1.2 1.1 0 .6.5 1.1 1.2 1.1zM16.3 13.3c-.7 0-1.4-.6-1.4-1.7v-7h2.4v-.5h-2.4V.9h-.5L13 4.1h-1.9v.5H13v6.8c0 2.1 1.4 3 2.8 3 1.6 0 2.7-1.2 2.5-4h-.4c0 1.6-.3 2.9-1.6 2.9zM42.8.5h-3.6v.4l1.7.6v5.7c-.5-2-2.2-3.2-4.2-3.2C34 4 32 6 32 9.3s2 5.3 4.7 5.3c2 0 3.7-1.3 4.2-3.3v3h3.6v-.4l-1.7-.5V.5zm-4.7 12.6c-1.9.3-3.6-1.1-4-3.6-.4-2.5.7-4.4 2.5-4.7 1.8-.3 3.6 1 4 3.5v.1c.5 2.5-.7 4.4-2.5 4.7zM48.8 4.1h-3.6v.4l1.7.5v8.2l-1.7.6v.4h5.3v-.4l-1.7-.6zM47.8 2.4c.7 0 1.2-.5 1.2-1.1 0-.6-.5-1.1-1.2-1.1s-1.1.5-1.1 1.1c0 .6.5 1.1 1.1 1.1zM57 3.8c-3.1 0-5.5 2.2-5.5 5.3 0 3.1 2.4 5.3 5.5 5.3s5.5-2.2 5.5-5.3c0-3.1-2.4-5.3-5.5-5.3zm.8 9.8c-1.9.3-3.4-1-3.9-4s.5-4.7 2.4-5c1.9-.3 3.4.9 3.9 3.9s-.5 4.8-2.4 5.1zM29.5 4.1h-3.6v.4l1.6.5v4.7c0 2-1.1 3.6-2.9 3.6-1.5 0-2.3-.9-2.3-2.7V4.1h-3.6v.4l1.7.5v5.7c0 2.5 1.3 3.7 3.4 3.7h.1s2.9.1 3.6-2.6v2.3h3.6v-.4l-1.7-.5V4.1zM9.9 8.7c-.4-.6-.7-.9-1.3-1.3-.6-.4-1.3-.6-1.7-.8-1.6-.7-3.1-1.1-4.1-1.8C2 4.3 2 3.3 2 3.3c0-.6.3-1.1.4-1.2C3.2.9 4.8.9 5.1.9c0 0 1.3-.1 2.2.8l1.9 3.4h.4V.4h-.4l-.6.9C7.6.6 6.3.2 5 .2c-.4 0-2.1 0-3.3 1C.6 2 .3 3.1.3 3.8c0 2 1.5 2.9 1.5 2.9.3.2.9.5 1.4.7 1.9.8 3 1.2 3 1.2.6.2 1.2.6 1.7 1.1.4.4.5.7.6.9.2.5.2.9.2 1-.1.6-.3.9-.4 1.1-.8 1.1-2.5 1-2.8 1 0 0-1.8-.1-2.8-1.2-.6-1-1.1-2-1.7-2.9H.4v4.6h.4s.4-.5.6-.9c0 0 1.7 1.1 3.9 1.1.5 0 1.5 0 2.5-.4.3-.1 1-.4 1.6-1.1 1.1-1.1.9-2.5.9-2.5 0-.3 0-1-.4-1.7z"/></g><path d="M1.2 14.4s-1.5.1-2.4-.9l-2.1-3.7h-.5v5.1h.5l.7-1c1.1.7 2.5 1.2 4 1.2" fill="#1d1d1b" id="Ebene_4"/></svg>